<svg width="102" height="34" viewBox="0 0 102 34" xmlns="http://www.w3.org/2000/svg" xmlns:sketch="http://www.bohemiancoding.com/sketch/ns"><title>ucl-life-learning-logo-xsmall</title><g sketch:type="MSShapeGroup" fill="#fff"><path d="M11.83 11.845c0 .984-.255 1.748-.758 2.273-.506.529-1.192.785-2.099.785-.915 0-1.605-.261-2.112-.797-.504-.533-.758-1.294-.758-2.261v-11.845h-6.104v11.575c0 .951.179 2.056.531 3.283.223.78.642 1.547 1.244 2.28.601.729 1.275 1.301 2.002 1.699.727.397 1.64.666 2.714.8 1.052.13 2.038.196 2.928.196 1.556 0 2.909-.219 4.023-.652.817-.314 1.604-.864 2.343-1.634.738-.771 1.287-1.682 1.633-2.71.342-1.018.515-2.115.515-3.261v-11.575h-6.103v11.845"/><path d="M33.826 11.753c-.238 1.155-.623 2.042-1.143 2.638-.506.58-1.243.863-2.253.863-1.039 0-1.82-.353-2.388-1.078-.575-.733-.866-2.14-.866-4.182 0-1.645.246-2.86.731-3.613.636-1.004 1.526-1.492 2.722-1.492.519 0 .994.113 1.412.335.418.222.777.546 1.069.963.174.244.346.648.512 1.199l.066.222 5.451-1.268-.081-.254c-.651-2.046-1.664-3.589-3.012-4.585-1.349-.996-3.217-1.501-5.553-1.501-2.986 0-5.332.878-6.975 2.612-1.638 1.728-2.469 4.226-2.469 7.422 0 2.394.47 4.391 1.4 5.934.932 1.548 2.059 2.646 3.351 3.265 1.281.614 2.947.925 4.954.925 1.66 0 3.049-.257 4.132-.763 1.087-.508 2.011-1.271 2.744-2.269.729-.992 1.269-2.239 1.606-3.71l.051-.222-5.405-1.707-.055.267"/><path d="M48.21 14.333v-14.333h-6.115v19.508h14.892v-5.175h-8.777"/><path d="M1.619 33.773v-7.868h1.602v6.531h3.982v1.337h-5.584"/><path d="M9.714 25.905h1.602v7.933h-1.602v-7.933z"/><path d="M13.762 33.837v-7.933h5.438v1.341h-3.836v1.878h3.312v1.342h-3.312v3.371h-1.601"/><path d="M21.857 33.837v-7.933h5.882v1.341h-4.281v1.759h3.983v1.337h-3.983v2.159h4.432v1.337h-6.033"/><path d="M35.619 33.773v-7.868h1.602v6.531h3.982v1.337h-5.584"/><path d="M43.714 33.837v-7.933h5.881v1.341h-4.28v1.759h3.983v1.337h-3.983v2.159h4.431v1.337h-6.033"/><path d="M56.82 30.699l-1.093-2.943-1.072 2.943h2.165zm2.949 3.139h-1.743l-.692-1.802h-3.17l-.656 1.802h-1.698l3.089-7.933h1.694l3.176 7.933z"/><path d="M63.935 29.259h1.185c.768 0 1.247-.032 1.439-.097.192-.065.341-.176.449-.336.108-.159.163-.357.163-.595 0-.267-.071-.482-.214-.647-.142-.164-.344-.268-.603-.31-.13-.019-.52-.028-1.169-.028h-1.25v2.013zm-1.602 4.578v-7.933h3.371c.848 0 1.464.071 1.848.214.385.143.691.396.923.76.231.365.346.781.346 1.25 0 .596-.175 1.087-.525 1.475-.35.388-.873.632-1.57.733.346.202.633.424.858.665.225.242.529.671.912 1.288l.969 1.548h-1.915l-1.158-1.727c-.411-.617-.692-1.005-.844-1.166-.151-.16-.312-.27-.481-.329-.17-.06-.439-.09-.806-.09h-.325v3.312h-1.602z"/><path d="M71.238 33.837v-7.933h1.558l3.247 5.298v-5.298h1.487v7.933h-1.606l-3.198-5.173v5.173h-1.488"/><path d="M80.952 25.905h1.602v7.933h-1.602v-7.933z"/><path d="M85.81 33.837v-7.933h1.558l3.246 5.298v-5.298h1.488v7.933h-1.607l-3.198-5.173v5.173h-1.488"/><path d="M98.681 31.056v-1.337h3.452v3.16c-.335.325-.822.611-1.458.858-.637.248-1.281.371-1.935.371-.829 0-1.553-.174-2.17-.523-.617-.347-1.081-.846-1.391-1.493-.31-.648-.465-1.352-.465-2.113 0-.826.174-1.56.52-2.202.346-.642.853-1.135 1.52-1.477.509-.263 1.141-.395 1.899-.395.985 0 1.754.206 2.308.62.554.412.91.984 1.069 1.712l-1.591.297c-.112-.389-.321-.696-.631-.923-.308-.225-.693-.337-1.155-.337-.699 0-1.256.221-1.669.665-.413.444-.619 1.102-.619 1.975 0 .941.21 1.647.627 2.119.419.47.967.706 1.645.706.336 0 .672-.066 1.009-.198.338-.131.627-.291.869-.478v-1.007h-1.834"/><path d="M79.333 15.381v3.919h1.867v-2.136h2.574v2.136h1.867v-3.919h-6.308"/><path d="M83.381 9.714v2.463c1.623.168 3.082.894 4.183 1.981l1.74-1.74c-1.548-1.533-3.622-2.53-5.923-2.705"/><path d="M81.541 9.714c-2.102.243-3.994 1.179-5.446 2.573l1.741 1.74c1.001-.948 2.281-1.601 3.704-1.826v-2.488"/><path d="M89.048 16.359c.607 1.035.962 2.237.962 3.521l-.005.096h2.463l.005-.096c0-1.967-.605-3.794-1.637-5.309l-1.787 1.787"/><path d="M77.17 15.539l-1.777-1.777c-1.083 1.537-1.727 3.407-1.727 5.427l.005.096h2.463l-.004-.096c0-1.339.385-2.586 1.04-3.65"/><path d="M83.381 4.857v2.463c3.019.181 5.744 1.464 7.763 3.468l1.74-1.74c-2.466-2.45-5.807-4.006-9.504-4.19"/><path d="M81.883 4.857c-3.499.262-6.654 1.762-9.026 4.073l1.741 1.74c1.925-1.864 4.465-3.095 7.285-3.35v-2.463"/><path d="M92.286 12.28c1.491 2.006 2.384 4.481 2.384 7.166l-.005.096h2.463l.005-.096c0-3.364-1.162-6.458-3.09-8.922l-1.757 1.756"/><path d="M72.935 12.28l-1.756-1.757c-1.985 2.483-3.179 5.623-3.179 9.041l.005.096h2.463l-.005-.096c0-2.739.929-5.258 2.472-7.284"/><path d="M83.381 0v2.481c4.363.186 8.306 2.01 11.208 4.897l1.741-1.741c-3.349-3.334-7.907-5.45-12.949-5.637"/><path d="M81.283 0c-4.844.27-9.218 2.328-12.474 5.521l1.744 1.744c2.809-2.746 6.567-4.511 10.73-4.779v-2.485"/><path d="M97.276 7.286l-1.753 1.753c2.361 2.909 3.782 6.612 3.782 10.642l-.005.096h2.465l.002-.096c0-4.71-1.689-9.032-4.491-12.395"/><path d="M69.477 9.03l-1.745-1.745c-2.859 3.379-4.588 7.743-4.588 12.506l.002.096h2.465l-.005-.096c0-4.083 1.454-7.834 3.871-10.761"/></g></svg>