<svg xmlns="http://www.w3.org/2000/svg" width="1470" height="131" viewBox="0.07 0.05 1470 131" enable-background="new 0.07 0.05 1470 131"><path d="M-3.691-1.95v133h1263.062c-.854-.603-1.645-1.243-2.352-1.918-6.306-6.097-6.392-13.178-6.573-19.814v-37.657h20.172v39.541c0 2.689.092 5.469 2.343 7.619 1.619 1.704 4.054 2.331 6.393 2.331 3.15 0 5.225-1.166 6.395-2.239 2.34-2.242 2.431-5.021 2.431-7.711v-39.541h20.261v33.711c0 7.261 0 16.677-7.474 23.759-.714.669-1.502 1.31-2.353 1.918h30.207c-8.892-6.38-13.07-17.041-13.07-27.383 0-17.034 11.439-34.339 32.958-34.339 9.637 0 18.819 3.408 25.485 10.224 2.701 2.779 3.965 4.93 5.312 7.438l-16.838 8.341c-1.623-3.769-4.684-10.492-13.149-10.492-4.413 0-7.204 2.062-8.554 3.408-4.774 4.57-4.774 11.743-4.774 14.259 0 9.411 3.516 18.289 13.42 18.289 9.366 0 12.157-8.25 12.88-10.401l17.107 8.249c-1.622 3.048-3.15 5.916-6.213 8.965-1.312 1.287-2.735 2.43-4.238 3.442h18.501v-59.478h20.078v46.748h26.059v12.731h36.286v-133h-1473.762z"/><g><path fill="#fff" d="M1242.126 85.883l-10.875-2.336s-10.85 2.332-10.871 2.336l-.039.062.15.557.031-.001-.006.001s.168-.021.268.134l.162.894.066.062h20.479l.061-.046.162-.895c.094-.175.275-.15.275-.15l-.004-.001.027.001.15-.557-.036-.061zM1240.99 87.879l.021-.024v-.276l-.021-.002h-1.652l-.025.002v.276l.025.024.07.001.035.064c0 .042.018.257.168.387l-.031.07h-.051l-.027.045.018.133v.121l.023.04h.023l.018.018v6.099l-.088.088-.012.022v.103l-.008.022-.021.007h-.076l-.025.025v.176h1.619v-.176l-.023-.025h-.076l-.023-.007-.008-.022v-.1l-.01-.021-.088-.09v-6.099l.016-.018h.023l.025-.04v-.121l.018-.132-.029-.046h-.049l-.033-.07c.152-.124.168-.34.168-.381l.039-.07.067-.003zM1237.427 87.879l.023-.024v-.276l-.023-.002h-1.654l-.023.002v.276l.023.024.072.001.033.064c0 .042.02.257.168.387l-.029.07h-.051l-.031.045.018.133v.121l.025.04h.023l.018.018.002.024v6.075l-.09.088-.01.022v.103l-.01.022-.02.007h-.078l-.021.025v.176h1.615v-.176l-.023-.025h-.076l-.023-.007-.008-.022v-.1l-.01-.021-.088-.09v-6.099l.018-.018h.021l.023-.04v-.121l.021-.132-.031-.046h-.049l-.031-.07c.152-.124.168-.34.168-.381l.037-.07.071-.003zM1233.863 87.879l.02-.024v-.276l-.02-.002h-1.654l-.023.002v.276l.023.024.072.001.031.064c0 .042.021.257.172.387l-.031.07h-.051l-.029.045.018.133v.121l.021.04h.023l.021.018v6.099l-.09.088-.012.022v.103l-.006.022-.021.007h-.076l-.023.025v.176h1.615v-.176l-.023-.025h-.076l-.023-.007-.008-.022v-.1l-.008-.021-.09-.09v-6.099l.018-.018h.021l.025-.04v-.121l.021-.132-.029-.046h-.051l-.029-.07c.15-.124.164-.34.164-.381l.039-.07.069-.003zM1230.298 87.879l.023-.024v-.276l-.023-.002h-1.654l-.021.002v.276l.021.024.07.001.035.064c0 .042.02.257.17.387l-.031.07h-.051l-.029.045.018.133v.121l.025.04h.023l.018.018v6.099l-.09.088-.008.022v.103l-.01.022-.021.007h-.076l-.023.025v.176h1.615v-.176l-.023-.025h-.076l-.023-.007-.006-.022v-.1l-.01-.021-.088-.09v-6.075l-.002-.024.018-.018h.023l.023-.04v-.121l.02-.132-.029-.046h-.049l-.033-.07c.152-.124.168-.34.168-.381l.037-.07.069-.003zM1226.734 87.879l.021-.024v-.276l-.021-.002h-1.652l-.023.002v.276l.023.024.068.001.035.064c0 .042.021.257.172.387l-.033.07h-.051l-.029.045.018.133v.121l.025.04h.021l.02.018v6.099l-.088.088-.012.022v.103l-.008.022-.021.007h-.074l-.025.025v.176h1.615v-.176l-.021-.025h-.078l-.021-.007-.008-.022v-.1l-.01-.021-.09-.09v-6.099l.018-.018h.021l.025-.04v-.121l.02-.132-.029-.046h-.051l-.031-.07c.152-.124.168-.34.168-.381l.037-.07.069-.003zM1223.169 87.879l.025-.024v-.276l-.025-.002h-1.652l-.023.002v.276l.023.024.07.001.035.064c0 .042.02.257.17.387l-.031.07h-.053l-.027.045.016.133v.121l.025.04h.023l.018.018v6.099l-.088.088-.01.022v.103l-.006.022-.023.007h-.076l-.025.025v.176h1.617v-.176l-.023-.025h-.078l-.02-.007-.01-.022v-.1l-.008-.021-.09-.09v-6.099l.016-.018h.021l.027-.04v-.121l.02-.132-.029-.046h-.051l-.031-.07c.15-.124.166-.34.166-.381l.039-.07.068-.003zM1236.312 81.444h-.17l-.043-.036v-.184l-.047-.047h-.166l-.045-.042v-.169l-.043-.037h-.1l-.074-.078c-.006-.23.074-1.86-.787-3.042-.678-1.014-1.611-1.527-2.127-1.768-.01-.221-.322-.304-.459-.352-.072-.023-.135-.053-.135-.116l-.002-.075c0-.068.061-.097.156-.094l.051-.043v-.197l-.066-.061h-.186l-.066-.064v-.1c0-.058-.045-.091-.08-.107v-1.217l.059-.036.014-.001h.004l.029-.03v-.116l-.029-.029h-.055l-.033-.089.041-.087h.047l.029-.028v-.119l-.029-.028h-.061l-.074-.037c-.207-.164-.416-.399-.416-.436v-.044l-.082-.074-.02-.058.023-.032v-.079l-.105-.183h-.008l-.105.183v.079l.023.032-.016.058-.082.074-.002.044c0 .035-.209.271-.416.436l-.074.037h-.061l-.029.028v.118l.029.028h.049l.039.087-.033.089h-.057l-.027.029v.116l.027.03h.006l.014.001.061.036v1.217c-.035.017-.082.05-.082.107v.1l-.066.064h-.186l-.068.061v.197l.051.043c.094-.003.158.024.158.094l-.002.075c0 .063-.064.093-.135.116-.137.047-.449.131-.457.352-.518.239-1.453.754-2.127 1.768-.863 1.18-.781 2.812-.789 3.042l-.074.078h-.1l-.043.037v.169l-.043.042h-.17l-.043.047v.184l-.047.036h-.17l-.047.049v.196l.029.028c.051.007.152.053.152.166 0 .192.117.211.164.211v.709c0 .166-.129.23-.201.248l-.033.04v.729l4.982-1.1h.008l4.984 1.1v-.729l-.037-.04c-.072-.018-.199-.083-.199-.248v-.709c.049 0 .164-.019.164-.211 0-.112.105-.159.152-.166l.031-.028v-.196l-.047-.048zM1241.826 97.375v-1.457h-.852v-.636h-19.439v.635h-.854v1.456h-.857v1.472l22.859.001v-1.471z"/></g></svg>