<svg width="144" height="48" viewBox="0 0 144 48" xmlns="http://www.w3.org/2000/svg" xmlns:sketch="http://www.bohemiancoding.com/sketch/ns"><title>ucl-life-learning-logo-medium</title><g sketch:type="MSShapeGroup" fill="#fff"><path d="M16.702 16.722c0 1.389-.36 2.467-1.07 3.209-.714.746-1.683 1.109-2.963 1.109-1.291 0-2.266-.368-2.982-1.126-.711-.752-1.07-1.826-1.07-3.192v-16.722h-8.617v16.342c0 1.343.253 2.903.75 4.634.315 1.102.906 2.184 1.757 3.218.848 1.03 1.8 1.837 2.826 2.399 1.026.561 2.315.941 3.832 1.129 1.486.183 2.877.277 4.134.277 2.197 0 4.107-.31 5.68-.92 1.153-.443 2.265-1.219 3.307-2.307 1.042-1.088 1.817-2.375 2.305-3.826.482-1.438.727-2.986.727-4.603v-16.342h-8.616v16.722"/><path d="M47.754 16.593c-.336 1.631-.879 2.883-1.614 3.725-.714.819-1.754 1.218-3.181 1.218-1.466 0-2.569-.498-3.371-1.522-.811-1.035-1.223-3.022-1.223-5.904 0-2.322.347-4.038 1.032-5.101.898-1.417 2.154-2.106 3.842-2.106.733 0 1.403.16 1.993.473.59.313 1.097.77 1.509 1.359.246.345.489.915.722 1.693l.094.313 7.695-1.79-.114-.359c-.919-2.889-2.35-5.067-4.253-6.473-1.905-1.406-4.542-2.119-7.839-2.119-4.216 0-7.528 1.24-9.847 3.687-2.313 2.44-3.486 5.966-3.486 10.478 0 3.379.664 6.199 1.977 8.377 1.315 2.185 2.906 3.736 4.73 4.609 1.808.867 4.161 1.306 6.994 1.306 2.343 0 4.305-.362 5.833-1.077 1.535-.717 2.839-1.794 3.874-3.203 1.029-1.4 1.792-3.161 2.267-5.238l.072-.313-7.631-2.41-.078.377"/><path d="M68.062 20.234v-20.234h-8.633v27.541h21.024v-7.306h-12.391"/><path d="M2.286 47.679v-11.107h2.262v9.221h5.622v1.887h-7.883"/><path d="M13.714 36.571h2.262v11.199h-2.262v-11.199z"/><path d="M19.429 47.77v-11.199h7.677v1.894h-5.416v2.651h4.675v1.895h-4.675v4.759h-2.261"/><path d="M30.857 47.77v-11.199h8.304v1.894h-6.043v2.483h5.623v1.887h-5.623v3.048h6.257v1.887h-8.518"/><path d="M50.286 47.679v-11.107h2.262v9.221h5.622v1.887h-7.883"/><path d="M61.714 47.77v-11.199h8.303v1.894h-6.042v2.483h5.623v1.887h-5.623v3.048h6.256v1.887h-8.517"/><path d="M80.216 43.339l-1.543-4.155-1.513 4.155h3.056zm4.163 4.431h-2.461l-.977-2.544h-4.475l-.926 2.544h-2.398l4.361-11.199h2.392l4.483 11.199z"/><path d="M90.262 41.307h1.673c1.085 0 1.761-.046 2.031-.137.271-.091.481-.249.634-.474.153-.224.23-.504.23-.84 0-.377-.101-.68-.302-.913-.201-.231-.486-.378-.851-.438-.184-.026-.734-.04-1.65-.04h-1.765v2.842zm-2.262 6.463v-11.199h4.759c1.198 0 2.066.101 2.609.302.543.202.976.559 1.303 1.073.326.515.488 1.103.488 1.765 0 .841-.247 1.535-.741 2.082-.494.547-1.232.893-2.216 1.034.489.286.894.599 1.211.939.318.342.747.947 1.287 1.818l1.368 2.185h-2.704l-1.635-2.438c-.581-.871-.977-1.418-1.192-1.646-.213-.226-.44-.382-.679-.465-.24-.085-.619-.127-1.138-.127h-.458v4.675h-2.262z"/><path d="M100.571 47.77v-11.199h2.2l4.584 7.479v-7.479h2.099v11.199h-2.267l-4.515-7.303v7.303h-2.101"/><path d="M114.286 36.571h2.262v11.199h-2.262v-11.199z"/><path d="M121.143 47.77v-11.199h2.2l4.583 7.479v-7.479h2.101v11.199h-2.269l-4.514-7.303v7.303h-2.101"/><path d="M139.314 43.843v-1.887h4.873v4.461c-.473.459-1.16.863-2.058 1.211-.899.35-1.809.523-2.731.523-1.17 0-2.192-.246-3.063-.738-.871-.49-1.526-1.194-1.963-2.107-.438-.914-.657-1.909-.657-2.983 0-1.166.246-2.202.734-3.109.489-.906 1.205-1.602 2.146-2.086.719-.371 1.611-.558 2.681-.558 1.391 0 2.477.291 3.258.875.782.582 1.285 1.389 1.509 2.417l-2.246.419c-.158-.55-.454-.983-.89-1.303-.435-.318-.978-.475-1.631-.475-.987 0-1.773.312-2.357.938-.583.627-.874 1.555-.874 2.789 0 1.328.296 2.326.886 2.991.591.664 1.366.997 2.322.997.474 0 .949-.093 1.425-.28.477-.185.885-.41 1.226-.674v-1.422h-2.59"/><path d="M112 21.714v5.533h2.635v-3.016h3.634v3.016h2.635v-5.533h-8.905"/><path d="M117.714 13.714v3.478c2.291.237 4.351 1.262 5.905 2.797l2.457-2.456c-2.185-2.165-5.113-3.571-8.362-3.818"/><path d="M115.117 13.714c-2.968.343-5.639 1.665-7.688 3.633l2.458 2.457c1.414-1.338 3.221-2.261 5.23-2.578v-3.512"/><path d="M125.714 23.095c.857 1.462 1.358 3.158 1.358 4.971l-.007.135h3.477l.007-.135c0-2.777-.854-5.357-2.311-7.495l-2.523 2.523"/><path d="M108.946 21.937l-2.509-2.509c-1.529 2.17-2.438 4.81-2.438 7.662l.007.135h3.477l-.006-.135c0-1.89.543-3.651 1.469-5.153"/><path d="M117.714 6.857v3.477c4.262.256 8.109 2.066 10.96 4.896l2.457-2.457c-3.481-3.459-8.198-5.656-13.417-5.915"/><path d="M115.6 6.857c-4.939.37-9.394 2.488-12.743 5.75l2.458 2.456c2.718-2.632 6.303-4.369 10.285-4.729v-3.477"/><path d="M130.286 17.336c2.105 2.832 3.366 6.326 3.366 10.117l-.007.135h3.477l.007-.135c0-4.75-1.64-9.117-4.362-12.595l-2.48 2.479"/><path d="M102.967 17.337l-2.479-2.48c-2.802 3.505-4.488 7.938-4.488 12.763l.007.135h3.477l-.007-.135c0-3.866 1.311-7.423 3.49-10.283"/><path d="M117.714 0v3.503c6.159.263 11.726 2.838 15.823 6.913l2.458-2.458c-4.728-4.706-11.162-7.694-18.281-7.958"/><path d="M114.753 0c-6.839.382-13.014 3.287-17.61 7.794l2.462 2.462c3.966-3.877 9.271-6.369 15.149-6.747v-3.509"/><path d="M137.331 10.286l-2.474 2.474c3.333 4.107 5.339 9.335 5.339 15.024l-.007.135h3.48l.002-.135c0-6.649-2.384-12.751-6.341-17.498"/><path d="M98.085 12.749l-2.464-2.463c-4.037 4.77-6.478 10.931-6.478 17.655l.003.135h3.48l-.007-.135c0-5.765 2.053-11.059 5.465-15.192"/></g></svg>