<svg width="126" height="42" viewBox="0 0 126 42" xmlns="http://www.w3.org/2000/svg" xmlns:sketch="http://www.bohemiancoding.com/sketch/ns"><title>ucl-life-learning-logo-small</title><g sketch:type="MSShapeGroup" fill="#fff"><path d="M14.614 14.632c0 1.215-.315 2.159-.936 2.808-.625.653-1.473.97-2.593.97-1.13 0-1.983-.322-2.609-.985-.622-.658-.936-1.598-.936-2.793v-14.632h-7.54v14.299c0 1.175.221 2.54.656 4.055.276.964.793 1.911 1.537 2.816.742.901 1.575 1.607 2.473 2.099.898.491 2.026.823 3.353.988 1.3.16 2.517.242 3.617.242 1.922 0 3.594-.271 4.97-.805 1.009-.388 1.982-1.067 2.894-2.019.912-.952 1.59-2.078 2.017-3.348.422-1.258.636-2.613.636-4.028v-14.299h-7.539v14.632"/><path d="M41.785 14.519c-.294 1.427-.769 2.523-1.412 3.259-.625.717-1.535 1.066-2.783 1.066-1.283 0-2.248-.436-2.95-1.332-.71-.906-1.07-2.644-1.07-5.166 0-2.032.304-3.533.903-4.463.786-1.24 1.885-1.843 3.362-1.843.641 0 1.228.14 1.744.414.516.274.96.674 1.32 1.189.215.302.428.801.632 1.481l.082.274 6.733-1.566-.1-.314c-.804-2.528-2.056-4.434-3.721-5.664-1.667-1.23-3.974-1.854-6.859-1.854-3.689 0-6.587 1.085-8.616 3.226-2.024 2.135-3.05 5.22-3.05 9.168 0 2.957.581 5.424 1.73 7.33 1.151 1.912 2.543 3.269 4.139 4.033 1.582.759 3.641 1.143 6.12 1.143 2.05 0 3.767-.317 5.104-.942 1.343-.627 2.484-1.57 3.39-2.803.9-1.225 1.568-2.766 1.984-4.583l.063-.274-6.677-2.109-.068.33"/><path d="M59.554 17.705v-17.705h-7.554v24.098h18.396v-6.393h-10.842"/><path d="M2 41.719v-9.719h1.979v8.068h4.919v1.651h-6.898"/><path d="M12 32h1.979v9.799h-1.979v-9.799z"/><path d="M17 41.799v-9.799h6.717v1.657h-4.739v2.32h4.091v1.658h-4.091v4.164h-1.978"/><path d="M27 41.799v-9.799h7.266v1.657h-5.288v2.173h4.92v1.651h-4.92v2.667h5.475v1.651h-7.453"/><path d="M44 41.719v-9.719h1.979v8.068h4.919v1.651h-6.898"/><path d="M54 41.799v-9.799h7.265v1.657h-5.287v2.173h4.92v1.651h-4.92v2.667h5.474v1.651h-7.452"/><path d="M70.189 37.922l-1.35-3.636-1.324 3.636h2.674zm3.643 3.877h-2.153l-.855-2.226h-3.916l-.81 2.226h-2.098l3.816-9.799h2.093l3.923 9.799z"/><path d="M78.979 36.144h1.464c.949 0 1.541-.04 1.777-.12.237-.08.421-.218.555-.415.134-.196.201-.441.201-.735 0-.33-.088-.595-.264-.799-.176-.202-.425-.331-.745-.383-.161-.023-.642-.035-1.444-.035h-1.544v2.487zm-1.979 5.655v-9.799h4.164c1.048 0 1.808.088 2.283.264.475.177.854.489 1.14.939.285.451.427.965.427 1.544 0 .736-.216 1.343-.648 1.822-.432.479-1.078.781-1.939.905.428.25.782.524 1.06.822.278.299.654.829 1.126 1.591l1.197 1.912h-2.366l-1.431-2.133c-.508-.762-.855-1.241-1.043-1.44-.186-.198-.385-.334-.594-.407-.21-.074-.542-.111-.996-.111h-.401v4.091h-1.979z"/><path d="M88 41.799v-9.799h1.925l4.011 6.544v-6.544h1.837v9.799h-1.984l-3.951-6.39v6.39h-1.838"/><path d="M100 32h1.979v9.799h-1.979v-9.799z"/><path d="M106 41.799v-9.799h1.925l4.01 6.544v-6.544h1.838v9.799h-1.985l-3.95-6.39v6.39h-1.838"/><path d="M121.9 38.363v-1.651h4.264v3.903c-.414.402-1.015.755-1.801 1.06-.787.306-1.583.458-2.39.458-1.024 0-1.918-.215-2.68-.646-.762-.429-1.335-1.045-1.718-1.844-.383-.8-.575-1.67-.575-2.61 0-1.02.215-1.927.642-2.72.428-.793 1.054-1.402 1.878-1.825.629-.325 1.41-.488 2.346-.488 1.217 0 2.167.255 2.851.766.684.509 1.124 1.215 1.32 2.115l-1.965.367c-.138-.481-.397-.86-.779-1.14-.381-.278-.856-.416-1.427-.416-.864 0-1.551.273-2.062.821-.51.549-.765 1.361-.765 2.44 0 1.162.259 2.035.775 2.617.517.581 1.195.872 2.032.872.415 0 .83-.081 1.247-.245.417-.162.774-.359 1.073-.59v-1.244h-2.266"/><path d="M98 19v4.841h2.306v-2.639h3.18v2.639h2.306v-4.841h-7.792"/><path d="M103 12v3.043c2.005.207 3.807 1.104 5.167 2.447l2.15-2.149c-1.912-1.894-4.474-3.125-7.317-3.341"/><path d="M100.727 12c-2.597.3-4.934 1.457-6.727 3.179l2.151 2.15c1.237-1.171 2.818-1.978 4.576-2.256v-3.073"/><path d="M110 20.208c.75 1.279 1.188 2.763 1.188 4.35l-.006.118h3.042l.006-.118c0-2.43-.747-4.687-2.022-6.558l-2.208 2.208"/><path d="M95.328 19.195l-2.195-2.195c-1.338 1.899-2.133 4.209-2.133 6.704l.006.118h3.042l-.005-.118c0-1.654.475-3.195 1.285-4.509"/><path d="M103 6v3.042c3.729.224 7.095 1.808 9.59 4.284l2.15-2.15c-3.046-3.027-7.173-4.949-11.74-5.176"/><path d="M101.15 6c-4.322.324-8.22 2.177-11.15 5.031l2.151 2.149c2.378-2.303 5.515-3.823 8.999-4.138v-3.042"/><path d="M114 15.169c1.842 2.478 2.945 5.535 2.945 8.852l-.006.118h3.042l.006-.118c0-4.156-1.435-7.977-3.817-11.021l-2.17 2.169"/><path d="M90.096 15.17l-2.169-2.17c-2.452 3.067-3.927 6.946-3.927 11.168l.006.118h3.042l-.006-.118c0-3.383 1.147-6.495 3.054-8.998"/><path d="M103 0v3.065c5.389.23 10.26 2.483 13.845 6.049l2.151-2.151c-4.137-4.118-9.767-6.732-15.996-6.963"/><path d="M100.409 0c-5.984.334-11.387 2.876-15.409 6.82l2.154 2.154c3.47-3.392 8.112-5.573 13.255-5.904v-3.07"/><path d="M120.165 9l-2.165 2.165c2.916 3.594 4.672 8.168 4.672 13.146l-.006.118h3.045l.002-.118c0-5.818-2.086-11.157-5.548-15.311"/><path d="M85.824 11.155l-2.156-2.155c-3.532 4.174-5.668 9.565-5.668 15.448l.003.118h3.045l-.006-.118c0-5.044 1.796-9.677 4.782-13.293"/></g></svg>