<svg xmlns="http://www.w3.org/2000/svg" width="383.788" height="52.763"><g><path d="M18.267 18.789c0 1.518-.394 2.699-1.169 3.509-.782.817-1.842 1.213-3.242 1.213-1.412 0-2.479-.402-3.26-1.231-.777-.823-1.171-1.998-1.171-3.491v-18.291h-9.424v17.875c0 1.469.276 3.174.82 5.068.345 1.204.991 2.389 1.922 3.519.927 1.127 1.968 2.009 3.091 2.624 1.122.613 2.532 1.029 4.19 1.235 1.625.201 3.147.303 4.522.303 2.401 0 4.492-.339 6.213-1.007 1.261-.484 2.477-1.333 3.617-2.523 1.14-1.19 1.987-2.598 2.521-4.185.528-1.573.796-3.267.796-5.035v-17.875h-9.424v18.291" fill="#231f20"/><path d="M52.025 18.147c-.368 1.783-.961 3.153-1.764 4.073-.781.896-1.919 1.332-3.48 1.332-1.603 0-2.809-.544-3.688-1.665-.887-1.132-1.337-3.304-1.337-6.457 0-2.54.38-4.417 1.129-5.579.982-1.55 2.357-2.303 4.203-2.303.801 0 1.535.174 2.179.516.645.343 1.2.843 1.651 1.486.268.378.534 1.001.789 1.853l.103.342 8.416-1.957-.125-.393c-1.005-3.161-2.57-5.543-4.651-7.08-2.084-1.539-4.968-2.318-8.574-2.318-4.611 0-8.235 1.357-10.771 4.032-2.53 2.669-3.813 6.526-3.813 11.46 0 3.697.728 6.78 2.163 9.163 1.438 2.39 3.18 4.086 5.174 5.041 1.978.948 4.552 1.428 7.65 1.428 2.562 0 4.708-.396 6.38-1.177 1.679-.784 3.105-1.963 4.238-3.504 1.125-1.531 1.959-3.458 2.479-5.729l.079-.342-8.346-2.636-.085.413" fill="#231f20"/><path d="M73.915 22.631v-22.132h-9.443v30.123h22.995v-7.992h-13.552" fill="#231f20"/><path d="M2.084 52.554v-12.148h2.474v10.084h6.149v2.064h-8.623" fill="#231f20"/><path d="M14.618 52.554h2.473v-12.249h-2.473v12.249z" fill="#231f20"/><path d="M21.689 52.554v-12.249h8.396v2.072h-5.923v2.899h5.113v2.073h-5.113v5.205h-2.473" fill="#231f20"/><path d="M34.348 52.554v-12.249h9.082v2.072h-6.609v2.716h6.149v2.063h-6.149v3.334h6.843v2.064h-9.315" fill="#231f20"/><path d="M55.03 52.554v-12.148h2.473v10.084h6.149v2.064h-8.623" fill="#231f20"/><path d="M67.64 52.554v-12.249h9.082v2.072h-6.609v2.716h6.149v2.063h-6.149v3.334h6.843v2.064h-9.316" fill="#231f20"/><path d="M87.769 47.708l-1.688-4.544-1.655 4.544h3.342zm4.553 4.846h-2.69l-1.069-2.782h-4.896l-1.012 2.782h-2.623l4.771-12.249h2.615l4.904 12.249" fill="#231f20"/><path d="M98.34 45.485h1.829c1.187 0 1.927-.05 2.223-.15.295-.1.526-.272.693-.518.167-.245.251-.552.251-.919 0-.413-.11-.745-.33-.999-.22-.253-.53-.414-.931-.48-.201-.028-.802-.042-1.805-.042h-1.93v3.108zm-2.473 7.069v-12.249h5.205c1.309 0 2.26.11 2.853.33.593.221 1.068.612 1.425 1.174.356.563.535 1.206.535 1.93 0 .919-.271 1.678-.81 2.276-.54.6-1.348.977-2.423 1.132.535.313.977.655 1.325 1.028.348.374.817 1.036 1.408 1.988l1.495 2.39h-2.958l-1.788-2.666c-.635-.952-1.069-1.551-1.303-1.8-.234-.247-.482-.417-.744-.509-.262-.091-.677-.138-1.245-.138h-.501v5.113h-2.473" fill="#231f20"/><path d="M110.464 52.554v-12.249h2.406l5.013 8.18v-8.18h2.297v12.249h-2.481l-4.938-7.987v7.987h-2.297" fill="#231f20"/><path d="M124.944 52.554h2.473v-12.249h-2.473v12.249z" fill="#231f20"/><path d="M132.024 52.554v-12.249h2.406l5.013 8.18v-8.18h2.297v12.249h-2.481l-4.938-7.987v7.987h-2.297" fill="#231f20"/><path d="M152.278 48.051v-2.064h5.33v4.879c-.518.501-1.269.943-2.251 1.324-.984.382-1.979.573-2.987.573-1.28 0-2.397-.269-3.35-.807-.953-.537-1.669-1.306-2.147-2.306-.479-1-.719-2.087-.719-3.262 0-1.276.269-2.41.802-3.401.535-.991 1.317-1.752 2.348-2.28.786-.407 1.762-.61 2.933-.61 1.521 0 2.709.318 3.564.957.855.637 1.405 1.519 1.65 2.644l-2.456.459c-.172-.602-.496-1.076-.974-1.425-.476-.348-1.07-.521-1.784-.521-1.08 0-1.939.342-2.578 1.026-.637.686-.956 1.702-.956 3.051 0 1.453.324 2.544.969 3.27.646.728 1.494 1.09 2.54 1.09.519 0 1.038-.102 1.559-.305.521-.203.968-.449 1.341-.739v-1.554h-2.833" fill="#231f20"/><path d="M122.875 24.448v6.051h2.882v-3.299h3.975v3.299h2.882v-6.051h-9.74" fill="#4ca6cf"/><path d="M128.84 15.815v3.804c2.506.259 4.759 1.38 6.459 3.059l2.688-2.688c-2.39-2.367-5.593-3.905-9.146-4.176" fill="#4ca6cf"/><path d="M126.036 15.864c-3.247.376-6.168 1.821-8.408 3.974l2.688 2.688c1.546-1.465 3.523-2.473 5.72-2.82v-3.842" fill="#4ca6cf"/><path d="M137.029 24.914c.938 1.599 1.485 3.453 1.485 5.438l-.007.147h3.803l.007-.147c0-3.037-.934-5.859-2.527-8.197l-2.76 2.759" fill="#4ca6cf"/><path d="M118.539 24.715l-2.744-2.744c-1.673 2.375-2.666 5.262-2.666 8.381l.007.147h3.803l-.008-.147c0-2.067.595-3.994 1.607-5.637" fill="#4ca6cf"/><path d="M128.84 7.993v3.803c4.661.279 8.869 2.259 11.988 5.354l2.688-2.688c-3.808-3.783-8.966-6.186-14.675-6.469" fill="#4ca6cf"/><path d="M126.036 8.022c-5.402.405-10.275 2.72-13.937 6.288l2.688 2.688c2.972-2.879 6.894-4.779 11.249-5.173v-3.802" fill="#4ca6cf"/><path d="M142.655 19.287c2.303 3.097 3.681 6.918 3.681 11.065l-.007.147h3.803l.007-.147c0-5.195-1.794-9.971-4.771-13.777l-2.712 2.712" fill="#4ca6cf"/><path d="M112.928 19.104l-2.712-2.712c-3.064 3.833-4.909 8.682-4.909 13.96l.007.147h3.803l-.007-.147c0-4.229 1.434-8.119 3.818-11.248" fill="#4ca6cf"/><path d="M128.84.438v3.832c6.736.287 12.825 3.103 17.306 7.561l2.689-2.689c-5.171-5.147-12.209-8.415-19.995-8.703" fill="#4ca6cf"/><path d="M126.036.46c-7.48.419-14.233 3.595-19.262 8.525l2.693 2.693c4.338-4.241 10.141-6.966 16.569-7.38v-3.838" fill="#4ca6cf"/><path d="M150.73 11.213l-2.706 2.705c3.645 4.493 5.84 10.21 5.84 16.433l-.007.147h3.806l.003-.147c0-7.272-2.607-13.946-6.935-19.139" fill="#4ca6cf"/><path d="M107.56 13.736l-2.694-2.694c-4.415 5.217-7.085 11.956-7.085 19.31l.004.147h3.806l-.008-.147c0-6.306 2.245-12.097 5.977-16.616" fill="#4ca6cf"/><path d="M187.475 6.372l1.759-.171c.106.59.319 1.023.644 1.3.323.276.76.415 1.309.415.583 0 1.021-.124 1.316-.37.294-.246.441-.534.441-.863 0-.212-.061-.392-.185-.54-.125-.148-.343-.277-.651-.387-.211-.073-.693-.204-1.446-.391-.968-.24-1.647-.536-2.039-.885-.549-.493-.824-1.092-.824-1.8 0-.456.13-.882.388-1.279.259-.397.631-.699 1.117-.906.486-.208 1.074-.312 1.76-.312 1.124 0 1.969.246 2.538.739.566.492.865 1.149.894 1.971l-1.808.08c-.076-.46-.242-.79-.497-.992-.254-.201-.635-.302-1.144-.302-.525 0-.936.108-1.234.323-.191.139-.286.324-.286.556 0 .211.089.392.269.543.228.191.781.391 1.66.598.879.208 1.529.422 1.951.644.419.222.749.525.989.909.236.385.356.859.356 1.425 0 .513-.144.993-.427 1.44-.285.447-.688.78-1.209.998-.521.218-1.169.327-1.948.327-1.131 0-1.999-.261-2.605-.785-.608-.523-.969-1.285-1.087-2.286" fill="#ec6819"/><path d="M196.259.336h1.806v4.846c0 .769.022 1.268.068 1.495.076.366.261.661.551.882.292.222.69.333 1.194.333.512 0 .9-.105 1.16-.314.26-.209.417-.467.47-.772.052-.305.079-.812.079-1.52v-4.95h1.808v4.7c0 1.074-.049 1.833-.146 2.276-.099.444-.279.818-.54 1.123-.264.305-.614.548-1.054.73-.439.181-1.012.272-1.721.272-.854 0-1.502-.099-1.944-.296-.441-.197-.79-.454-1.046-.769s-.425-.646-.507-.992c-.117-.513-.176-1.27-.176-2.271v-4.773" fill="#ec6819"/><path d="M205.274 9.283v-8.948h2.704l1.624 6.104 1.605-6.104h2.71v8.948h-1.679v-7.043l-1.776 7.043h-1.74l-1.77-7.043v7.043h-1.677" fill="#ec6819"/><path d="M215.686 9.283v-8.948h2.704l1.624 6.104 1.605-6.104h2.71v8.948h-1.679v-7.043l-1.776 7.043h-1.739l-1.771-7.043v7.043h-1.677" fill="#ec6819"/><path d="M226.123 9.283v-8.948h6.635v1.514h-4.827v1.984h4.491v1.508h-4.491v2.435h4.999v1.508h-6.806" fill="#ec6819"/><path d="M236.273 4.12h1.337c.866 0 1.407-.037 1.624-.11.215-.073.384-.2.506-.379s.182-.403.182-.671c0-.301-.08-.544-.241-.73-.16-.185-.388-.302-.68-.351-.146-.02-.586-.03-1.319-.03h-1.41v2.271zm-1.806 5.164v-8.948h3.803c.956 0 1.651.081 2.084.241.435.161.781.447 1.041.858.26.411.391.88.391 1.41 0 .671-.199 1.226-.593 1.663-.394.438-.985.713-1.77.827.39.228.713.478.966.751.256.273.599.757 1.03 1.453l1.093 1.746h-2.161l-1.306-1.947c-.464-.696-.781-1.134-.951-1.315-.171-.181-.352-.305-.544-.372-.191-.067-.495-.101-.91-.101h-.366v3.735h-1.806" fill="#ec6819"/><path d="M246.502 6.372l1.758-.171c.106.59.32 1.023.645 1.3.323.276.759.415 1.309.415.583 0 1.02-.124 1.316-.37.294-.246.441-.534.441-.863 0-.212-.063-.392-.185-.54-.125-.148-.343-.277-.651-.387-.211-.073-.694-.204-1.446-.391-.969-.24-1.647-.536-2.039-.885-.549-.493-.824-1.092-.824-1.8 0-.456.129-.882.386-1.279.259-.397.631-.699 1.119-.906.486-.208 1.073-.312 1.76-.312 1.124 0 1.968.246 2.536.739.568.492.866 1.149.894 1.971l-1.806.08c-.077-.46-.242-.79-.497-.992-.255-.201-.635-.302-1.145-.302-.524 0-.936.108-1.232.323-.191.139-.286.324-.286.556 0 .211.089.392.269.543.228.191.781.391 1.66.598.879.208 1.528.422 1.95.644.42.222.75.525.989.909.237.385.356.859.356 1.425 0 .513-.142.993-.426 1.44-.285.447-.688.78-1.209.998-.521.218-1.17.327-1.948.327-1.131 0-1.999-.261-2.606-.785-.606-.523-.968-1.285-1.086-2.286" fill="#ec6819"/><path d="M261.022 5.993l1.752.556c-.269.977-.716 1.702-1.341 2.176-.624.474-1.415.711-2.376.711-1.188 0-2.164-.406-2.93-1.218-.765-.812-1.147-1.921-1.147-3.329 0-1.489.385-2.646 1.154-3.47.769-.824 1.78-1.236 3.034-1.236 1.095 0 1.984.324 2.667.971.406.382.711.932.915 1.648l-1.789.427c-.106-.464-.325-.83-.662-1.099-.334-.269-.744-.403-1.222-.403-.664 0-1.201.238-1.614.714-.414.476-.62 1.247-.62 2.313 0 1.131.204 1.937.61 2.417.406.48.936.72 1.586.72.48 0 .894-.153 1.24-.458.345-.305.594-.786.744-1.44" fill="#ec6819"/><path d="M264.331 9.283v-8.948h1.806v3.522h3.54v-3.522h1.806v8.948h-1.806v-3.913h-3.54v3.913h-1.806" fill="#ec6819"/><path d="M274.848 4.803c0 1.013.234 1.781.701 2.304.468.523 1.063.785 1.782.785.72 0 1.311-.26 1.774-.778.461-.519.693-1.297.693-2.334 0-1.025-.225-1.79-.675-2.295-.45-.505-1.046-.757-1.791-.757-.745 0-1.345.255-1.8.766-.456.511-.684 1.281-.684 2.311zm-1.861.061c0-.911.136-1.677.409-2.295.204-.456.48-.865.833-1.227.352-.362.739-.63 1.157-.806.557-.236 1.199-.354 1.927-.354 1.319 0 2.374.409 3.165 1.227.792.818 1.188 1.954 1.188 3.412 0 1.445-.394 2.575-1.177 3.391-.785.816-1.835 1.224-3.15 1.224-1.33 0-2.389-.406-3.174-1.218-.785-.812-1.177-1.93-1.177-3.354" fill="#ec6819"/><path d="M284.57 4.803c0 1.013.235 1.781.703 2.304.468.523 1.061.785 1.781.785.721 0 1.311-.26 1.774-.778.463-.519.693-1.297.693-2.334 0-1.025-.225-1.79-.675-2.295-.449-.505-1.046-.757-1.791-.757-.744 0-1.345.255-1.8.766-.455.511-.684 1.281-.684 2.311zm-1.861.061c0-.911.136-1.677.409-2.295.204-.456.481-.865.833-1.227.352-.362.739-.63 1.157-.806.557-.236 1.2-.354 1.929-.354 1.317 0 2.373.409 3.164 1.227.792.818 1.188 1.954 1.188 3.412 0 1.445-.393 2.575-1.177 3.391-.785.816-1.835 1.224-3.15 1.224-1.33 0-2.389-.406-3.174-1.218-.785-.812-1.177-1.93-1.177-3.354" fill="#ec6819"/><path d="M292.846 9.283v-8.874h1.808v7.367h4.491v1.508h-6.299" fill="#ec6819"/><path d="M299.975 6.372l1.759-.171c.106.59.319 1.023.644 1.3.323.276.76.415 1.309.415.583 0 1.021-.124 1.316-.37.294-.246.441-.534.441-.863 0-.212-.061-.392-.185-.54-.125-.148-.343-.277-.651-.387-.211-.073-.693-.204-1.446-.391-.968-.24-1.647-.536-2.039-.885-.549-.493-.824-1.092-.824-1.8 0-.456.13-.882.388-1.279.259-.397.631-.699 1.117-.906.486-.208 1.074-.312 1.76-.312 1.124 0 1.969.246 2.538.739.566.492.865 1.149.894 1.971l-1.808.08c-.076-.46-.242-.79-.497-.992-.254-.201-.635-.302-1.144-.302-.525 0-.936.108-1.234.323-.191.139-.286.324-.286.556 0 .211.089.392.269.543.228.191.781.391 1.66.598.879.208 1.529.422 1.951.644.419.222.749.525.989.909.236.385.356.859.356 1.425 0 .513-.144.993-.427 1.44-.285.447-.688.78-1.209.998-.521.218-1.169.327-1.948.327-1.131 0-1.999-.261-2.605-.785-.608-.523-.969-1.285-1.087-2.286" fill="#ec6819"/><path d="M189.74 16.224v2.539h.989c.711 0 1.188-.047 1.427-.141.241-.093.429-.24.566-.44.135-.2.204-.432.204-.696 0-.325-.095-.594-.287-.806-.191-.212-.432-.344-.726-.397-.216-.041-.649-.061-1.3-.061h-.873zm-1.806 7.434v-8.948h2.899c1.099 0 1.815.044 2.149.134.512.134.943.426 1.288.875.345.45.519 1.03.519 1.743 0 .549-.1 1.011-.299 1.386-.199.374-.454.668-.761.882-.306.213-.619.355-.936.424-.43.085-1.055.128-1.874.128h-1.177v3.376h-1.806" fill="#ec6819"/><path d="M198.084 18.495h1.336c.866 0 1.407-.037 1.624-.11.216-.073.384-.2.506-.379s.184-.403.184-.671c0-.301-.081-.544-.242-.73-.16-.185-.386-.302-.68-.351-.146-.02-.585-.03-1.317-.03h-1.41v2.271zm-1.808 5.164v-8.948h3.803c.956 0 1.653.081 2.084.241.435.161.781.447 1.041.858.26.411.391.88.391 1.41 0 .671-.198 1.226-.593 1.663-.394.438-.985.713-1.77.827.391.228.714.478.968.751.255.273.598.757 1.029 1.453l1.093 1.746h-2.161l-1.306-1.947c-.464-.696-.781-1.134-.951-1.315-.171-.181-.351-.305-.544-.372-.191-.067-.494-.101-.909-.101h-.366v3.735h-1.808" fill="#ec6819"/><path d="M206.792 19.178c0 1.013.235 1.781.703 2.304.468.523 1.063.785 1.782.785.72 0 1.311-.26 1.774-.778.461-.519.691-1.297.691-2.334 0-1.025-.224-1.79-.675-2.295-.449-.505-1.046-.757-1.79-.757-.745 0-1.345.255-1.801.766-.455.511-.684 1.281-.684 2.311zm-1.861.061c0-.911.138-1.677.409-2.295.204-.456.481-.865.833-1.227.354-.362.739-.63 1.157-.806.557-.236 1.2-.354 1.929-.354 1.319 0 2.374.409 3.164 1.227.792.818 1.189 1.954 1.189 3.412 0 1.445-.394 2.575-1.179 3.391-.785.816-1.835 1.224-3.149 1.224-1.331 0-2.389-.406-3.174-1.218-.785-.812-1.179-1.93-1.179-3.354" fill="#ec6819"/><path d="M215.032 23.658v-8.948h6.134v1.514h-4.326v2.118h3.735v1.514h-3.735v3.803h-1.808" fill="#ec6819"/><path d="M222.656 23.658v-8.948h6.635v1.514h-4.829v1.984h4.492v1.508h-4.492v2.435h4.999v1.508h-6.805" fill="#ec6819"/><path d="M230.536 20.747l1.758-.171c.106.59.32 1.023.644 1.3.323.276.76.415 1.309.415.583 0 1.021-.124 1.316-.37.294-.246.443-.534.443-.863 0-.212-.063-.392-.186-.54-.124-.148-.341-.277-.65-.387-.211-.073-.694-.204-1.448-.391-.968-.24-1.647-.536-2.038-.885-.55-.493-.825-1.092-.825-1.8 0-.456.13-.882.388-1.279.259-.397.631-.699 1.117-.906.486-.208 1.074-.312 1.761-.312 1.123 0 1.968.246 2.536.739.566.492.865 1.149.894 1.971l-1.806.08c-.077-.46-.244-.79-.499-.992-.254-.201-.635-.302-1.144-.302-.525 0-.936.108-1.232.323-.193.139-.287.324-.287.556 0 .211.09.392.269.543.229.191.781.391 1.66.598.879.208 1.529.422 1.951.644.42.222.749.525.989.909.236.385.356.859.356 1.425 0 .513-.142.993-.427 1.44-.284.447-.688.78-1.209.998-.521.218-1.169.327-1.946.327-1.133 0-2-.261-2.606-.785-.608-.523-.969-1.285-1.086-2.286" fill="#ec6819"/><path d="M238.874 20.747l1.758-.171c.106.59.32 1.023.644 1.3.323.276.76.415 1.309.415.583 0 1.021-.124 1.316-.37.294-.246.443-.534.443-.863 0-.212-.063-.392-.186-.54-.125-.148-.341-.277-.65-.387-.211-.073-.694-.204-1.448-.391-.968-.24-1.647-.536-2.039-.885-.549-.493-.824-1.092-.824-1.8 0-.456.13-.882.388-1.279.259-.397.631-.699 1.117-.906.486-.208 1.074-.312 1.761-.312 1.123 0 1.968.246 2.536.739.566.492.865 1.149.894 1.971l-1.808.08c-.076-.46-.242-.79-.497-.992-.254-.201-.635-.302-1.144-.302-.525 0-.936.108-1.232.323-.193.139-.287.324-.287.556 0 .211.089.392.269.543.229.191.781.391 1.66.598.879.208 1.529.422 1.951.644.42.222.749.525.989.909.236.385.356.859.356 1.425 0 .513-.142.993-.427 1.44-.284.447-.688.78-1.209.998-.521.218-1.169.327-1.946.327-1.133 0-2-.261-2.606-.785-.608-.523-.969-1.285-1.086-2.286" fill="#ec6819"/><path d="M247.614 23.658h1.806v-8.948h-1.806v8.948z" fill="#ec6819"/><path d="M252.636 19.178c0 1.013.235 1.781.703 2.304.468.523 1.061.785 1.782.785.72 0 1.31-.26 1.774-.778.461-.519.691-1.297.691-2.334 0-1.025-.224-1.79-.675-2.295-.449-.505-1.046-.757-1.79-.757-.745 0-1.346.255-1.801.766-.455.511-.684 1.281-.684 2.311zm-1.861.061c0-.911.136-1.677.409-2.295.204-.456.481-.865.833-1.227.352-.362.739-.63 1.157-.806.557-.236 1.2-.354 1.929-.354 1.319 0 2.373.409 3.164 1.227.792.818 1.188 1.954 1.188 3.412 0 1.445-.393 2.575-1.177 3.391-.785.816-1.835 1.224-3.15 1.224-1.33 0-2.389-.406-3.174-1.218-.785-.812-1.177-1.93-1.177-3.354" fill="#ec6819"/><path d="M260.882 23.658v-8.948h1.758l3.663 5.975v-5.975h1.679v8.948h-1.814l-3.606-5.835v5.835h-1.679" fill="#ec6819"/><path d="M274.634 20.118l-1.232-3.32-1.209 3.32h2.441zm3.326 3.54h-1.965l-.781-2.033h-3.578l-.738 2.033h-1.917l3.486-8.948h1.91l3.583 8.948" fill="#ec6819"/><path d="M278.967 23.658v-8.874h1.806v7.367h4.492v1.508h-6.299" fill="#ec6819"/><path d="M291.601 16.224v5.926h1.349c.505 0 .87-.029 1.093-.086.294-.073.536-.197.73-.372.194-.175.351-.463.472-.864.122-.401.184-.947.184-1.639 0-.692-.061-1.223-.184-1.593-.121-.371-.292-.659-.512-.867-.22-.207-.497-.348-.836-.421-.253-.057-.748-.086-1.482-.086h-.813zm-1.806-1.514h3.301c.745 0 1.313.057 1.704.171.525.154.974.429 1.349.824.375.395.659.878.854 1.45.196.572.294 1.277.294 2.115 0 .737-.091 1.371-.275 1.904-.224.651-.542 1.178-.959 1.581-.313.305-.735.543-1.269.714-.399.127-.931.19-1.599.19h-3.4v-8.948" fill="#ec6819"/><path d="M298.827 23.658v-8.948h6.635v1.514h-4.827v1.984h4.491v1.508h-4.491v2.435h4.999v1.508h-6.806" fill="#ec6819"/><path d="M309.447 23.658l-3.197-8.948h1.959l2.265 6.622 2.191-6.622h1.916l-3.205 8.948h-1.929" fill="#ec6819"/><path d="M315.502 23.658v-8.948h6.635v1.514h-4.827v1.984h4.491v1.508h-4.491v2.435h4.999v1.508h-6.806" fill="#ec6819"/><path d="M323.889 23.658v-8.874h1.808v7.367h4.491v1.508h-6.299" fill="#ec6819"/><path d="M332.971 19.178c0 1.013.234 1.781.701 2.304.468.523 1.063.785 1.782.785.72 0 1.311-.26 1.774-.778.461-.519.693-1.297.693-2.334 0-1.025-.225-1.79-.675-2.295-.45-.505-1.046-.757-1.791-.757-.745 0-1.345.255-1.8.766-.456.511-.684 1.281-.684 2.311zm-1.861.061c0-.911.136-1.677.409-2.295.204-.456.481-.865.833-1.227.352-.362.739-.63 1.157-.806.557-.236 1.2-.354 1.929-.354 1.317 0 2.373.409 3.164 1.227.792.818 1.188 1.954 1.188 3.412 0 1.445-.393 2.575-1.177 3.391-.785.816-1.835 1.224-3.15 1.224-1.33 0-2.389-.406-3.174-1.218-.785-.812-1.177-1.93-1.177-3.354" fill="#ec6819"/><path d="M343.005 16.224v2.539h.989c.713 0 1.188-.047 1.429-.141.24-.093.429-.24.565-.44.135-.2.204-.432.204-.696 0-.325-.095-.594-.286-.806-.193-.212-.434-.344-.728-.397-.215-.041-.649-.061-1.3-.061h-.873zm-1.806 7.434v-8.948h2.899c1.099 0 1.815.044 2.149.134.512.134.943.426 1.288.875.346.45.519 1.03.519 1.743 0 .549-.1 1.011-.299 1.386-.199.374-.453.668-.76.882-.306.213-.619.355-.936.424-.431.085-1.056.128-1.874.128h-1.179v3.376h-1.806" fill="#ec6819"/><path d="M349.511 23.658v-8.948h2.704l1.624 6.104 1.605-6.104h2.71v8.948h-1.677v-7.043l-1.776 7.043h-1.74l-1.77-7.043v7.043h-1.679" fill="#ec6819"/><path d="M359.949 23.658v-8.948h6.635v1.514h-4.829v1.984h4.492v1.508h-4.492v2.435h4.999v1.508h-6.805" fill="#ec6819"/><path d="M368.304 23.658v-8.948h1.759l3.661 5.975v-5.975h1.679v8.948h-1.813l-3.607-5.835v5.835h-1.679" fill="#ec6819"/><path d="M379.327 23.658v-7.434h-2.655v-1.514h7.11v1.514h-2.649v7.434h-1.806" fill="#ec6819"/><path d="M187.934 38.032v-8.947h6.634v1.514h-4.827v1.983h4.492v1.507h-4.492v2.436h4.999v1.507h-6.805" fill="#ec6819"/><path d="M195.361 38.032l3.058-4.669-2.771-4.278h2.112l1.794 2.874 1.759-2.874h2.094l-2.784 4.345 3.058 4.602h-2.179l-1.984-3.094-1.99 3.094h-2.166" fill="#ec6819"/><path d="M204.607 38.032v-8.947h6.635v1.514h-4.827v1.983h4.491v1.507h-4.491v2.436h4.999v1.507h-6.806" fill="#ec6819"/><path d="M218.67 34.743l1.752.555c-.269.977-.715 1.702-1.34 2.177-.625.474-1.416.711-2.377.711-1.188 0-2.164-.405-2.93-1.217-.765-.812-1.147-1.921-1.147-3.33 0-1.489.385-2.645 1.154-3.469.77-.824 1.78-1.236 3.034-1.236 1.095 0 1.984.324 2.667.971.406.382.711.932.915 1.647l-1.788.427c-.106-.464-.326-.829-.664-1.098-.334-.269-.743-.403-1.222-.403-.662 0-1.201.238-1.614.713-.414.476-.62 1.248-.62 2.313 0 1.132.204 1.938.61 2.417.406.481.936.72 1.587.72.479 0 .892-.152 1.239-.458.345-.305.594-.785.744-1.44" fill="#ec6819"/><path d="M221.96 29.086h1.808v4.845c0 .769.021 1.268.066 1.496.077.366.261.66.552.882.291.221.689.332 1.194.332.512 0 .899-.105 1.159-.313.261-.21.417-.468.47-.773.052-.305.08-.811.08-1.52v-4.949h1.806v4.699c0 1.074-.049 1.833-.146 2.277-.098.444-.279.818-.54 1.123-.264.305-.614.548-1.052.73-.44.181-1.014.271-1.721.271-.855 0-1.502-.099-1.945-.295-.44-.198-.79-.454-1.046-.769-.256-.316-.425-.646-.506-.993-.119-.513-.177-1.27-.177-2.271v-4.772" fill="#ec6819"/><path d="M233.014 38.032v-7.433h-2.655v-1.514h7.11v1.514h-2.649v7.433h-1.806" fill="#ec6819"/><path d="M238.58 38.032h1.806v-8.947h-1.806v8.947z" fill="#ec6819"/><path d="M244.391 38.032l-3.199-8.947h1.959l2.265 6.622 2.191-6.622h1.916l-3.204 8.947h-1.929" fill="#ec6819"/><path d="M250.445 38.032v-8.947h6.635v1.514h-4.827v1.983h4.491v1.507h-4.491v2.436h4.999v1.507h-6.806" fill="#ec6819"/><path d="M262.256 38.032v-8.947h6.634v1.514h-4.827v1.983h4.492v1.507h-4.492v2.436h4.999v1.507h-6.805" fill="#ec6819"/><path d="M272.394 30.599v5.926h1.349c.504 0 .869-.028 1.093-.086.292-.073.536-.197.73-.372.193-.174.35-.463.472-.863.122-.402.182-.947.182-1.64 0-.691-.06-1.222-.182-1.593-.122-.37-.292-.659-.512-.866-.22-.207-.499-.348-.836-.421-.253-.057-.748-.086-1.484-.086h-.811zm-1.806-1.514h3.301c.745 0 1.313.057 1.704.171.524.154.974.429 1.349.824.374.395.659.878.854 1.45.195.571.294 1.277.294 2.114 0 .737-.092 1.372-.275 1.904-.224.652-.544 1.178-.959 1.581-.314.305-.736.543-1.269.714-.4.127-.931.189-1.6.189h-3.399v-8.947" fill="#ec6819"/><path d="M279.608 29.086h1.808v4.845c0 .769.021 1.268.066 1.496.077.366.261.66.552.882.291.221.69.332 1.194.332.512 0 .9-.105 1.16-.313.26-.21.417-.468.47-.773.052-.305.079-.811.079-1.52v-4.949h1.806v4.699c0 1.074-.049 1.833-.146 2.277-.098.444-.278.818-.539 1.123-.264.305-.615.548-1.054.73-.44.181-1.014.271-1.721.271-.855 0-1.502-.099-1.945-.295-.44-.198-.79-.454-1.046-.769-.256-.316-.425-.646-.506-.993-.119-.513-.177-1.27-.177-2.271v-4.772" fill="#ec6819"/><path d="M294.373 34.743l1.751.555c-.269.977-.715 1.702-1.34 2.177-.624.474-1.416.711-2.376.711-1.189 0-2.165-.405-2.93-1.217-.765-.812-1.147-1.921-1.147-3.33 0-1.489.385-2.645 1.154-3.469.769-.824 1.78-1.236 3.034-1.236 1.095 0 1.982.324 2.666.971.407.382.713.932.916 1.647l-1.789.427c-.106-.464-.326-.829-.662-1.098-.335-.269-.744-.403-1.224-.403-.662 0-1.201.238-1.614.713-.414.476-.62 1.248-.62 2.313 0 1.132.204 1.938.61 2.417.407.481.938.72 1.587.72.48 0 .894-.152 1.239-.458.346-.305.595-.785.745-1.44" fill="#ec6819"/><path d="M302.416 34.492l-1.232-3.319-1.209 3.319h2.441zm3.328 3.54h-1.966l-.781-2.032h-3.576l-.739 2.032h-1.916l3.485-8.947h1.91l3.584 8.947" fill="#ec6819"/><path d="M307.788 38.032v-7.433h-2.655v-1.514h7.111v1.514h-2.649v7.433h-1.808" fill="#ec6819"/><path d="M313.354 38.032h1.807v-8.947h-1.807v8.947z" fill="#ec6819"/><path d="M318.377 33.552c0 1.013.235 1.781.703 2.305.468.522 1.061.784 1.781.784.721 0 1.311-.259 1.774-.777.461-.519.693-1.298.693-2.336 0-1.025-.225-1.79-.675-2.295-.449-.504-1.046-.756-1.791-.756-.744 0-1.345.255-1.8.766-.455.51-.684 1.281-.684 2.309zm-1.861.061c0-.911.136-1.676.409-2.295.204-.455.481-.864.833-1.226s.739-.63 1.157-.806c.557-.236 1.2-.354 1.929-.354 1.317 0 2.373.409 3.164 1.227.792.818 1.188 1.954 1.188 3.411 0 1.445-.393 2.574-1.177 3.391-.785.815-1.835 1.223-3.15 1.223-1.33 0-2.389-.405-3.174-1.217-.785-.812-1.177-1.93-1.177-3.354" fill="#ec6819"/><path d="M326.624 38.032v-8.947h1.758l3.663 5.975v-5.975h1.677v8.947h-1.813l-3.606-5.835v5.835h-1.679" fill="#ec6819"/><path d="M189.746 47.244h1.336c.866 0 1.407-.037 1.624-.11.216-.073.385-.199.506-.378.122-.179.184-.403.184-.671 0-.301-.081-.544-.242-.73-.16-.184-.386-.301-.68-.35-.146-.021-.585-.031-1.317-.031h-1.41v2.271zm-1.808 5.164v-8.948h3.803c.956 0 1.653.081 2.084.242.435.16.781.446 1.041.857.26.412.391.881.391 1.41 0 .671-.198 1.226-.593 1.664-.394.437-.985.713-1.77.827.391.228.714.479.968.75.255.272.598.757 1.029 1.453l1.093 1.746h-2.161l-1.305-1.947c-.465-.696-.781-1.134-.953-1.315-.171-.182-.351-.305-.544-.374-.191-.066-.494-.1-.909-.1h-.366v3.735h-1.808" fill="#ec6819"/><path d="M196.96 52.408v-8.948h6.635v1.514h-4.827v1.984h4.491v1.507h-4.491v2.436h4.999v1.507h-6.806" fill="#ec6819"/><path d="M211.023 49.118l1.752.555c-.269.977-.716 1.702-1.341 2.175-.624.475-1.415.712-2.376.712-1.188 0-2.164-.407-2.93-1.217-.765-.813-1.147-1.922-1.147-3.33 0-1.489.385-2.646 1.154-3.469.769-.825 1.78-1.236 3.034-1.236 1.095 0 1.984.323 2.667.97.406.382.711.932.915 1.648l-1.789.427c-.106-.464-.325-.83-.662-1.099-.334-.269-.744-.403-1.222-.403-.664 0-1.201.238-1.614.714-.414.476-.62 1.248-.62 2.313 0 1.132.204 1.938.61 2.417.406.48.936.72 1.586.72.48 0 .894-.152 1.24-.458.345-.305.594-.785.744-1.44" fill="#ec6819"/><path d="M216.137 47.244h1.336c.868 0 1.407-.037 1.624-.11.216-.073.385-.199.506-.378.122-.179.184-.403.184-.671 0-.301-.08-.544-.241-.73-.16-.184-.388-.301-.68-.35-.147-.021-.586-.031-1.319-.031h-1.41v2.271zm-1.806 5.164v-8.948h3.803c.955 0 1.651.081 2.084.242.434.16.781.446 1.041.857.26.412.39.881.39 1.41 0 .671-.198 1.226-.591 1.664-.395.437-.985.713-1.77.827.39.228.713.479.966.75.255.272.599.757 1.029 1.453l1.093 1.746h-2.16l-1.306-1.947c-.464-.696-.781-1.134-.953-1.315-.171-.182-.351-.305-.542-.374-.193-.066-.495-.1-.91-.1h-.366v3.735h-1.806" fill="#ec6819"/><path d="M223.352 52.408v-8.948h6.634v1.514h-4.827v1.984h4.492v1.507h-4.492v2.436h4.999v1.507h-6.805" fill="#ec6819"/><path d="M236.431 48.867l-1.232-3.32-1.209 3.32h2.441zm3.328 3.54h-1.966l-.781-2.032h-3.576l-.739 2.032h-1.916l3.485-8.948h1.91l3.584 8.948" fill="#ec6819"/><path d="M241.803 52.408v-7.434h-2.655v-1.514h7.111v1.514h-2.649v7.434h-1.808" fill="#ec6819"/><path d="M247.369 52.408h1.808v-8.948h-1.808v8.948z" fill="#ec6819"/><path d="M252.393 47.928c0 1.013.234 1.781.701 2.305.469.522 1.063.784 1.782.784.72 0 1.311-.259 1.774-.779.461-.518.693-1.296.693-2.334 0-1.025-.225-1.791-.675-2.295-.449-.504-1.046-.757-1.791-.757-.744 0-1.345.255-1.8.767-.455.51-.684 1.281-.684 2.31zm-1.861.061c0-.912.136-1.676.409-2.295.204-.455.481-.864.833-1.227.352-.363.739-.631 1.157-.806.557-.237 1.2-.354 1.929-.354 1.317 0 2.373.409 3.164 1.227.792.818 1.188 1.956 1.188 3.412 0 1.444-.393 2.574-1.177 3.39-.785.817-1.835 1.225-3.15 1.225-1.33 0-2.389-.407-3.174-1.217-.785-.813-1.177-1.93-1.177-3.354" fill="#ec6819"/><path d="M260.639 52.408v-8.948h1.758l3.663 5.976v-5.976h1.677v8.948h-1.813l-3.607-5.835v5.835h-1.677" fill="#ec6819"/><path d="M274.39 48.867l-1.234-3.32-1.209 3.32h2.442zm3.326 3.54h-1.966l-.781-2.032h-3.576l-.739 2.032h-1.916l3.485-8.948h1.911l3.583 8.948" fill="#ec6819"/><path d="M278.723 52.408v-8.875h1.808v7.367h4.491v1.507h-6.299" fill="#ec6819"/><path d="M289.605 52.408v-8.875h1.808v7.367h4.492v1.507h-6.3" fill="#ec6819"/><path d="M297.192 52.408v-8.948h6.634v1.514h-4.827v1.984h4.492v1.507h-4.492v2.436h4.999v1.507h-6.805" fill="#ec6819"/><path d="M310.272 48.867l-1.234-3.32-1.208 3.32h2.441zm3.326 3.54h-1.965l-.781-2.032h-3.578l-.739 2.032h-1.916l3.485-8.948h1.911l3.583 8.948" fill="#ec6819"/><path d="M316.37 47.244h1.336c.866 0 1.407-.037 1.624-.11.216-.073.384-.199.506-.378s.184-.403.184-.671c0-.301-.081-.544-.242-.73-.16-.184-.386-.301-.68-.35-.146-.021-.586-.031-1.317-.031h-1.41v2.271zm-1.808 5.164v-8.948h3.803c.956 0 1.653.081 2.084.242.435.16.781.446 1.041.857.26.412.391.881.391 1.41 0 .671-.198 1.226-.593 1.664-.394.437-.985.713-1.77.827.391.228.713.479.968.75.255.272.598.757 1.029 1.453l1.093 1.746h-2.161l-1.306-1.947c-.464-.696-.781-1.134-.951-1.315-.171-.182-.352-.305-.544-.374-.191-.066-.494-.1-.909-.1h-.366v3.735h-1.808" fill="#ec6819"/><path d="M323.603 52.408v-8.948h1.758l3.663 5.976v-5.976h1.677v8.948h-1.813l-3.606-5.835v5.835h-1.679" fill="#ec6819"/><path d="M332.556 52.408h1.806v-8.948h-1.806v8.948z" fill="#ec6819"/><path d="M336.103 52.408v-8.948h1.758l3.663 5.976v-5.976h1.677v8.948h-1.813l-3.606-5.835v5.835h-1.679" fill="#ec6819"/><path d="M349.274 49.118v-1.508h3.894v3.564c-.379.366-.926.688-1.644.967-.72.28-1.448.419-2.183.419-.936 0-1.752-.197-2.447-.59-.696-.392-1.219-.953-1.569-1.685-.351-.73-.525-1.524-.525-2.383 0-.931.195-1.76.586-2.484.39-.724.961-1.279 1.715-1.667.574-.296 1.288-.445 2.141-.445 1.111 0 1.979.233 2.603.699.625.465 1.028 1.11 1.206 1.931l-1.794.336c-.126-.439-.364-.786-.711-1.042-.349-.254-.782-.381-1.304-.381-.789 0-1.416.25-1.881.751-.466.5-.7 1.243-.7 2.228 0 1.062.235 1.858.708 2.39.472.53 1.09.796 1.856.796.379 0 .757-.074 1.139-.222.38-.149.706-.33.979-.541v-1.135h-2.069" fill="#ec6819"/></g></svg>