<svg width="162" height="54" viewBox="0 0 162 54" xmlns="http://www.w3.org/2000/svg" xmlns:sketch="http://www.bohemiancoding.com/sketch/ns"><title>ucl-life-learning-logo-large</title><g sketch:type="MSShapeGroup" fill="#fff"><path d="M18.789 18.813c0 1.562-.405 2.776-1.203 3.61-.804.84-1.894 1.247-3.334 1.247-1.453 0-2.55-.414-3.354-1.266-.8-.846-1.203-2.055-1.203-3.591v-18.813h-9.694v18.384c0 1.511.284 3.266.843 5.214.355 1.239 1.02 2.457 1.976 3.621.954 1.158 2.025 2.066 3.18 2.699 1.155.631 2.605 1.058 4.311 1.27 1.671.206 3.236.311 4.65.311 2.471 0 4.621-.348 6.39-1.035 1.297-.499 2.548-1.372 3.721-2.596s2.044-2.672 2.593-4.305c.543-1.617.818-3.36.818-5.179v-18.384h-9.693v18.813"/><path d="M53.724 18.667c-.378 1.835-.989 3.244-1.815 4.19-.804.922-1.974 1.371-3.578 1.371-1.65 0-2.89-.561-3.793-1.713-.913-1.165-1.376-3.399-1.376-6.642 0-2.613.391-4.542 1.161-5.738 1.011-1.594 2.424-2.37 4.323-2.37.824 0 1.579.18 2.242.532.663.352 1.234.867 1.697 1.529.276.388.55 1.03.813 1.904l.105.352 8.657-2.013-.129-.404c-1.034-3.25-2.643-5.701-4.784-7.282-2.143-1.581-5.109-2.384-8.819-2.384-4.743 0-8.469 1.395-11.078 4.148-2.602 2.745-3.921 6.711-3.921 11.787 0 3.802.747 6.974 2.224 9.424 1.48 2.458 3.27 4.203 5.322 5.185 2.034.976 4.681 1.47 7.869 1.47 2.636 0 4.843-.408 6.562-1.211 1.727-.806 3.194-2.019 4.359-3.604 1.157-1.575 2.016-3.556 2.551-5.892l.081-.352-8.585-2.712-.087.424"/><path d="M76.569 22.764v-22.764h-9.712v30.983h23.652v-8.22h-13.94"/><path d="M2.571 53.639v-12.496h2.544v10.373h6.324v2.123h-8.869"/><path d="M15.429 41.143h2.544v12.599h-2.544v-12.599z"/><path d="M21.857 53.742v-12.599h8.636v2.13h-6.093v2.983h5.26v2.132h-5.26v5.354h-2.543"/><path d="M34.714 53.742v-12.599h9.342v2.13h-6.799v2.794h6.326v2.123h-6.326v3.429h7.039v2.123h-9.582"/><path d="M56.571 53.639v-12.496h2.544v10.373h6.324v2.123h-8.869"/><path d="M69.429 53.742v-12.599h9.341v2.13h-6.798v2.794h6.326v2.123h-6.326v3.429h7.038v2.123h-9.581"/><path d="M90.243 48.757l-1.736-4.675-1.702 4.675h3.438zm4.684 4.985h-2.768l-1.099-2.862h-5.035l-1.041 2.862h-2.697l4.906-12.599h2.691l5.044 12.599z"/><path d="M101.544 46.471h1.882c1.22 0 1.981-.051 2.285-.154.305-.103.541-.28.714-.534.172-.252.258-.567.258-.945 0-.424-.113-.765-.339-1.027-.226-.26-.546-.426-.958-.492-.207-.03-.825-.045-1.857-.045h-1.985v3.198zm-2.544 7.271v-12.599h5.354c1.347 0 2.325.113 2.935.339.611.228 1.098.629 1.466 1.207.366.58.549 1.241.549 1.985 0 .946-.278 1.727-.833 2.343-.555.616-1.386 1.004-2.493 1.164.55.321 1.005.674 1.363 1.057.357.384.841 1.066 1.448 2.046l1.539 2.458h-3.042l-1.84-2.742c-.653-.98-1.099-1.596-1.341-1.851-.239-.255-.495-.429-.764-.523-.27-.095-.697-.143-1.281-.143h-.516v5.26h-2.544z"/><path d="M113.143 53.742v-12.599h2.475l5.157 8.414v-8.414h2.362v12.599h-2.551l-5.08-8.216v8.216h-2.363"/><path d="M128.571 41.143h2.544v12.599h-2.544v-12.599z"/><path d="M136.286 53.742v-12.599h2.475l5.156 8.414v-8.414h2.363v12.599h-2.552l-5.079-8.216v8.216h-2.363"/><path d="M156.729 49.324v-2.123h5.482v5.018c-.532.517-1.305.971-2.316 1.363-1.012.393-2.035.589-3.073.589-1.317 0-2.466-.276-3.446-.831-.98-.552-1.716-1.344-2.209-2.371-.492-1.029-.739-2.147-.739-3.356 0-1.311.276-2.478.825-3.497.55-1.02 1.355-1.803 2.415-2.346.809-.418 1.813-.627 3.016-.627 1.565 0 2.786.328 3.666.985.879.654 1.445 1.562 1.697 2.719l-2.526.472c-.177-.618-.51-1.106-1.002-1.466-.49-.357-1.101-.535-1.835-.535-1.111 0-1.994.351-2.651 1.056-.656.706-.984 1.75-.984 3.137 0 1.494.333 2.616.996 3.365.665.747 1.536 1.121 2.613 1.121.534 0 1.067-.104 1.603-.315.536-.208.995-.462 1.38-.759v-1.599h-2.913"/><path d="M126 24.429v6.224h2.965v-3.393h4.089v3.393h2.965v-6.224h-10.018"/><path d="M132.429 15.429v3.912c2.578.266 4.895 1.419 6.643 3.146l2.764-2.763c-2.458-2.435-5.752-4.018-9.408-4.296"/><path d="M129.506 15.429c-3.339.386-6.344 1.873-8.649 4.087l2.766 2.764c1.59-1.506 3.623-2.543 5.883-2.901v-3.951"/><path d="M141.429 25.982c.964 1.644 1.527 3.552 1.527 5.593l-.008.152h3.911l.008-.152c0-3.124-.96-6.026-2.6-8.432l-2.839 2.839"/><path d="M122.565 24.679l-2.822-2.822c-1.72 2.442-2.742 5.412-2.742 8.619l.008.152h3.911l-.006-.152c0-2.127.611-4.108 1.652-5.797"/><path d="M132.429 7.714v3.911c4.794.288 9.122 2.325 12.33 5.508l2.764-2.764c-3.916-3.892-9.222-6.363-15.094-6.655"/><path d="M130.05 7.714c-5.557.417-10.569 2.799-14.336 6.468l2.766 2.763c3.057-2.961 7.091-4.915 11.57-5.32v-3.911"/><path d="M146.571 19.503c2.368 3.186 3.786 7.116 3.786 11.381l-.008.152h3.911l.008-.152c0-5.343-1.845-10.256-4.908-14.17l-2.79 2.789"/><path d="M115.838 19.504l-2.789-2.79c-3.153 3.943-5.049 8.931-5.049 14.359l.008.152h3.911l-.008-.152c0-4.35 1.475-8.351 3.927-11.569"/><path d="M132.429 0v3.941c6.929.296 13.191 3.192 17.801 7.777l2.766-2.766c-5.319-5.295-12.558-8.655-20.566-8.952"/><path d="M129.097 0c-7.694.429-14.64 3.698-19.812 8.769l2.769 2.769c4.461-4.361 10.43-7.165 17.042-7.591v-3.947"/><path d="M154.498 11.571l-2.784 2.784c3.749 4.621 6.007 10.502 6.007 16.902l-.008.152h3.915l.003-.152c0-7.48-2.682-14.345-7.133-19.686"/><path d="M110.345 14.342l-2.772-2.771c-4.541 5.367-7.287 12.298-7.287 19.862l.004.152h3.915l-.008-.152c0-6.485 2.309-12.442 6.148-17.091"/></g></svg>